<svg width="20" height="34" viewBox="0 0 20 34" fill="none" xmlns="http://www.w3.org/2000/svg">
<path d="M11.0528 1.76376C11.0528 1.67021 11.0106 1.58048 10.9356 1.51433C10.8605 1.44818 10.7588 1.41101 10.6526 1.41101H6.98473C6.87861 1.41101 6.77683 1.44818 6.70179 1.51433C6.62675 1.58048 6.58459 1.67021 6.58459 1.76376C6.58459 1.85732 6.62675 1.94704 6.70179 2.0132C6.77683 2.07935 6.87861 2.11651 6.98473 2.11651H10.6526C10.7588 2.11651 10.8605 2.07935 10.9356 2.0132C11.0106 1.94704 11.0528 1.85732 11.0528 1.76376Z" fill="#1D1D1D" fill-opacity="0.25"/>
<path d="M12.3461 2.35162C12.6708 2.35162 12.934 2.0884 12.934 1.7637C12.934 1.439 12.6708 1.17578 12.3461 1.17578C12.0214 1.17578 11.7582 1.439 11.7582 1.7637C11.7582 2.0884 12.0214 2.35162 12.3461 2.35162Z" fill="#1D1D1D" fill-opacity="0.25"/>
<path fill-rule="evenodd" clip-rule="evenodd" d="M19.0025 5.53527V2.51386C19.0017 1.84739 18.7365 1.20846 18.265 0.737198C17.7936 0.265936 17.1544 0.000820396 16.4876 0H2.89923C2.23249 0.000820396 1.59329 0.265936 1.12183 0.737198C0.650365 1.20846 0.385138 1.84739 0.384317 2.51386V6.16744C0.280744 6.17262 0.183117 6.21737 0.111598 6.29243C0.0400789 6.36749 0.000129551 6.46714 0 6.5708V7.97735C0.000129551 8.08101 0.0400789 8.18066 0.111598 8.25572C0.183117 8.33078 0.280744 8.37553 0.384317 8.38071V9.68374C0.280744 9.68892 0.183117 9.73366 0.111598 9.80873C0.0400789 9.88379 0.000129551 9.98344 0 10.0871V11.4936C0.000112279 11.5972 0.040054 11.6969 0.111575 11.772C0.183096 11.8471 0.280732 11.8918 0.384317 11.897V30.6448C0.385138 31.3112 0.650365 31.9502 1.12183 32.4214C1.59329 32.8927 2.23249 33.1578 2.89923 33.1586H16.4873C17.1541 33.1578 17.7934 32.8927 18.2649 32.4213C18.7363 31.95 19.0015 31.311 19.0023 30.6444V7.71221C19.084 7.68613 19.1553 7.63476 19.2059 7.56551C19.2565 7.49626 19.2838 7.41273 19.2837 7.32698V5.9205C19.2838 5.83478 19.2565 5.75128 19.206 5.68204C19.1554 5.61279 19.0842 5.5614 19.0025 5.53527ZM17.6932 31.8498C18.013 31.5301 18.1929 31.0966 18.1934 30.6444L18.1932 2.51386C18.1926 2.06182 18.0126 1.62847 17.6929 1.30883C17.3731 0.989193 16.9396 0.809354 16.4873 0.808747H14.6709H13.8618H5.52459H4.7157H2.89923C2.44701 0.809354 2.01347 0.989193 1.6937 1.30883C1.37393 1.62847 1.19401 2.06182 1.19341 2.51386V30.6444C1.19392 31.0965 1.3738 31.53 1.69358 31.8497C2.01337 32.1694 2.44695 32.3493 2.89923 32.3499H16.4873C16.9397 32.3494 17.3733 32.1695 17.6932 31.8498Z" fill="#1D1D1D" fill-opacity="0.25"/>
</svg>
